# xmcd CD database file
#
# Track frame offsets:
#	183
#	43855
#	75668
#	89628
#	125080
#	166913
#	210675
#
# Disc length: 3221 seconds
#
# Revision: 0
# Processed by: cddbd v1.5.1PL0 Copyright (c) Steve Scherf et al.
# Submitted via: CDex 1.51
#
DISCID=5e0c9307
DTITLE=Thelonious Monk - Monk in Berlin, May 1961
DYEAR=1961
DGENRE=Jazz
TTITLE0=I'm getting sentimental over you
TTITLE1=Jackie-Ing
TTITLE2=Crepuscule with Nellie
TTITLE3='Round Midnight
TTITLE4=Blue Monk
TTITLE5=Sweet Georgia Brown
TTITLE6=Rhythm-A-Ning
EXTD=YEAR: 1961
EXTT0=
EXTT1=
EXTT2=
EXTT3=
EXTT4=
EXTT5=
EXTT6=
PLAYORDER=
